<svg width="154" height="154" viewBox="0 0 154 154" fill="none" xmlns="http://www.w3.org/2000/svg">
<path d="M124.591 45.0904C118.191 26.6904 103.591 27.0904 92.0906 31.5904L91.968 31.6487C83.4286 35.7141 66.6432 43.7052 77.5906 67.5904C85.1531 84.0904 101.091 80.5904 110.591 77.0904C117.924 74.0904 130.991 63.4903 124.591 45.0904Z" fill="white"/>
<path fill-rule="evenodd" clip-rule="evenodd" d="M106.987 73.2516C111.742 71.5894 115.756 68.2983 118.317 63.961C120.371 60.2816 121.322 55.483 119.727 49.3966C116.309 36.5415 106.918 31.8962 92.6376 37.607C89.1651 38.9945 82.2432 43.0725 80.2272 50.3778C78.5484 56.4335 80.7791 62.5736 84.1596 67.8704C89.4258 76.1415 97.8348 76.3408 106.987 73.2516ZM80.6794 50.5387C82.5805 43.3485 89.3261 39.2475 92.7373 37.883C105.669 32.7165 115.649 35.9973 119.145 49.5882C120.678 55.4523 119.75 60.09 117.757 63.6467C115.274 67.8467 111.386 71.034 106.78 72.646C97.9191 75.6432 89.786 75.5359 84.6655 67.5791C81.354 62.4509 79.108 56.4412 80.6794 50.5387Z" fill="black" stroke="black" stroke-width="0.5"/>
<path d="M38 24L21 31L21 32L28.5 34L29 39.5L28 48L31 52.5L32 54.5C32.8 56.1 35 58.5 36 59.5L36.5 63C36.3333 63.1667 34.7 63.8 29.5 65C24.3 66.2 13.6666 93.8333 8.99996 107.5C6.99996 109.167 3.29996 114.3 4.49996 121.5C5.69996 128.7 19.3333 132.167 26 133C26.1666 135 26.7 139.1 27.5 139.5C28.5 140 30 134.5 29.5 133.5C37.5 135.1 57.5 132.833 66.5 131.5V130.5H68L71.5 135H73L72.5 132.5L71 126L69 124L78 118C78 118 82 111 80.5 106C79 101 73 97.5 73 97.5L75.5 94.5L74.5 85.5L75 82.5L74 81L72.5 73L71.1225 74L69 73L65.5 75L52 65L46.5 64.5L45 60L47.5 58L49.5 53.5L50 44.5L47 37V33L54.5 30V29C52.9 26.6 42.8333 24.6667 38 24Z" fill="white"/>
<path d="M61.5 80L42.5 77.5L43 85L44.5 87.5L47 86L48 88L47.5 89.5L48 90.5L44 92.5L45 101.5L65 104L75.5 95L74.5 86L71.5 85V83.5L70.5 81L74 80.5L72 73.5L61.5 80Z" fill="#FDBD13"/>
<path d="M125 70.5L143.5 79.5L135.5 85L137 104.5C138.167 105.167 140.6 106.6 141 107C134.6 113.8 103.667 124.167 89 128.5L74.5 120.5C75.3333 120 77.7 117.9 80.5 113.5C83.7 105.1 76.8333 99 73 97L75.5 95V93L74.5 85.5L75 82L74 81L72.5 73L71 74L69 73L65.5 75L53 66.5L74 58.5C74 59.6667 75 63.7 79 70.5C85.4 84.1 103.333 80.8333 111.5 77.5L125 70.5Z" fill="#FDBD13"/>
<path d="M136.5 106.5L137 102.5L136.5 100.5L115.5 109.5L102.5 114.5L89.5 118L87.5 121.5V126H89.5L108.5 118.5L136.5 106.5Z" fill="white"/>
<path d="M111 95L90.5 101.5L88.5 110L89.5 115.5L93.5 114.5L108.5 110L134.5 99L133.5 93.5L125.5 89L111 95Z" fill="white"/>
<path fill-rule="evenodd" clip-rule="evenodd" d="M101.269 42.6662C107.225 44.322 110.69 49.7108 112.315 55.6976C112.351 55.8842 112.426 56.0612 112.534 56.2172C112.643 56.3733 112.783 56.5049 112.945 56.6038C113.107 56.7026 113.289 56.7664 113.477 56.7911C113.666 56.8158 113.857 56.8009 114.04 56.7472C114.222 56.6936 114.391 56.6025 114.536 56.4797C114.681 56.3569 114.799 56.2051 114.882 56.0341C114.965 55.8631 115.011 55.6767 115.018 55.4867C115.025 55.2967 114.992 55.1075 114.921 54.931C112.744 48.0781 108.643 42.7429 101.499 41.6314C101.427 41.6075 101.35 41.5991 101.274 41.6067C101.198 41.6143 101.125 41.6378 101.058 41.6756C100.992 41.7135 100.935 41.7648 100.89 41.8263C100.844 41.8878 100.813 41.9581 100.797 42.0326C100.78 42.1071 100.78 42.1842 100.796 42.2589C100.811 42.3336 100.842 42.4042 100.887 42.4661C100.931 42.528 100.988 42.5798 101.054 42.6183C101.12 42.6567 101.193 42.6809 101.269 42.6892V42.6662ZM103.484 22.6286C103.494 22.6608 103.51 22.6908 103.531 22.7169C103.552 22.743 103.578 22.7647 103.608 22.7807C103.637 22.7967 103.67 22.8068 103.703 22.8103C103.736 22.8138 103.77 22.8106 103.802 22.8011C103.835 22.7915 103.865 22.7757 103.891 22.7545C103.917 22.7334 103.939 22.7073 103.955 22.6777C103.971 22.6482 103.981 22.6158 103.984 22.5824C103.988 22.549 103.984 22.5152 103.975 22.483C102.687 16.9025 103.362 19.6314 101.928 14.2042C101.905 14.1227 101.865 14.0466 101.812 13.9803C101.759 13.914 101.693 13.8589 101.619 13.8179C101.545 13.777 101.463 13.7511 101.378 13.7418C101.294 13.7324 101.209 13.7398 101.127 13.7635C101.046 13.7871 100.97 13.8266 100.903 13.8797C100.837 13.9327 100.782 13.9983 100.741 14.0727C100.7 14.1471 100.674 14.2288 100.665 14.3132C100.655 14.3976 100.663 14.483 100.686 14.5645C102.35 19.9303 101.491 17.2321 103.484 22.6286ZM57.4223 45.9931C62.8725 47.3039 60.0976 46.6523 65.7777 47.7408C65.8395 47.747 65.9016 47.731 65.9526 47.6956C66.0037 47.6601 66.0404 47.6076 66.0561 47.5474C66.0718 47.4873 66.0656 47.4235 66.0384 47.3676C66.0112 47.3117 65.965 47.2673 65.908 47.2425C60.4502 45.4718 63.1484 46.3073 57.7519 44.7436C57.5862 44.6999 57.41 44.7238 57.2619 44.81C57.1138 44.8963 57.0061 45.0378 56.9624 45.2035C56.9187 45.3692 56.9426 45.5455 57.0288 45.6935C57.1151 45.8416 57.2566 45.9493 57.4223 45.9931ZM109.126 22.23C109.686 16.5039 109.54 19.3478 109.824 13.7213C109.813 13.5604 109.743 13.4092 109.627 13.297C109.511 13.1848 109.358 13.1195 109.197 13.1138C109.036 13.1081 108.878 13.1623 108.755 13.266C108.631 13.3698 108.55 13.5156 108.528 13.6753C108.413 19.3324 108.467 16.4579 108.613 22.2147C108.621 22.2756 108.651 22.3315 108.697 22.3726C108.742 22.4136 108.801 22.4372 108.863 22.439C108.924 22.4408 108.984 22.4209 109.033 22.3826C109.081 22.3444 109.114 22.2903 109.126 22.23ZM68.8362 41.5164C68.8859 41.5606 68.9506 41.5841 69.017 41.5821C69.0835 41.5801 69.1467 41.5529 69.1937 41.5059C69.2407 41.4589 69.2679 41.3957 69.2699 41.3293C69.2718 41.2628 69.2483 41.1981 69.2042 41.1485C65.4481 36.8711 67.3491 38.8488 63.4704 34.8244C63.3483 34.7027 63.1829 34.6344 63.0104 34.6344C62.838 34.6344 62.6726 34.7027 62.5505 34.8244C62.4905 34.8842 62.4429 34.9553 62.4104 35.0336C62.3779 35.1119 62.3611 35.1958 62.3611 35.2805C62.3611 35.3653 62.3779 35.4492 62.4104 35.5274C62.4429 35.6057 62.4905 35.6768 62.5505 35.7366C66.5519 39.6384 64.5895 37.7296 68.8362 41.5164ZM39.393 28.83C39.2551 28.1784 38.6265 28.0634 37.9903 28.0634C37.7655 28.077 37.5487 28.1515 37.363 28.2788C37.1773 28.4061 37.0297 28.5815 36.936 28.7862C36.8423 28.9909 36.806 29.2173 36.831 29.441C36.8561 29.6648 36.9415 29.8775 37.0781 30.0565C37.9596 31.076 40.0523 30.2864 39.393 28.83ZM37.561 29.0293C37.6152 28.9234 37.6932 28.8316 37.789 28.761C37.8848 28.6905 37.9957 28.6433 38.1129 28.623C38.5575 28.508 38.9944 28.5004 39.1861 28.9143C39.439 30.2634 37.0167 30.1485 37.561 29.0293ZM39.4697 46.0467C39.2139 45.923 38.9393 45.8426 38.6572 45.8091C38.0376 45.7689 37.4164 45.8577 36.8328 46.0697C36.5798 46.1847 36.4035 46.292 36.2885 46.3533C35.9972 46.5296 36.1122 46.6829 36.2885 46.6676C36.8656 46.6407 37.4397 46.5689 38.0056 46.453C38.0822 46.453 39.2167 46.2997 39.4084 46.2997C39.4412 46.3059 39.4752 46.2992 39.5032 46.2811C39.5313 46.263 39.5514 46.2348 39.5592 46.2023C39.5671 46.1699 39.5622 46.1356 39.5455 46.1066C39.5289 46.0777 39.5017 46.0562 39.4697 46.0467ZM44.8126 45.6098C44.778 45.6169 44.7477 45.6374 44.7283 45.6669C44.7089 45.6964 44.702 45.7324 44.7091 45.7669C44.7162 45.8015 44.7367 45.8318 44.7662 45.8512C44.7957 45.8706 44.8317 45.8775 44.8662 45.8704H45.8397C47.0509 45.8704 46.2537 45.9624 47.8788 45.8704C47.907 45.8634 47.9321 45.8471 47.95 45.8242C47.968 45.8013 47.9777 45.773 47.9777 45.7439C47.9777 45.7148 47.968 45.6866 47.95 45.6636C47.9321 45.6407 47.907 45.6244 47.8788 45.6174C47.4066 45.3647 46.8811 45.2281 46.3457 45.2188C45.8084 45.2056 45.2779 45.3409 44.8126 45.6098ZM39.1937 47.8328C39.1876 47.7474 39.1479 47.6679 39.0832 47.6119C39.0185 47.5558 38.9342 47.5277 38.8488 47.5338C38.7634 47.5399 38.6839 47.5797 38.6279 47.6444C38.5718 47.7091 38.5437 47.7934 38.5498 47.8788L38.6035 48.5993C38.6065 48.6416 38.6178 48.6829 38.6368 48.7208C38.6558 48.7587 38.682 48.7925 38.7141 48.8202C38.7461 48.848 38.7833 48.8692 38.8235 48.8826C38.8637 48.896 38.9062 48.9013 38.9484 48.8983C38.9907 48.8953 39.032 48.8839 39.0699 48.865C39.1078 48.846 39.1416 48.8197 39.1694 48.7877C39.1971 48.7557 39.2183 48.7185 39.2317 48.6783C39.2451 48.6381 39.2504 48.5956 39.2474 48.5533L39.1937 47.8328ZM45.993 47.1045C45.909 47.0905 45.8228 47.1088 45.7517 47.1557C45.6806 47.2026 45.6299 47.2747 45.6098 47.3575C45.5903 47.6331 45.5903 47.9098 45.6098 48.1854C45.6217 48.2632 45.6612 48.3342 45.7209 48.3854C45.7807 48.4367 45.8568 48.4649 45.9356 48.4649C46.0143 48.4649 46.0904 48.4367 46.1502 48.3854C46.2099 48.3342 46.2494 48.2632 46.2613 48.1854V47.4878C46.2701 47.4449 46.2701 47.4007 46.2612 47.3578C46.2524 47.3149 46.2348 47.2743 46.2097 47.2384C46.1846 47.2025 46.1524 47.1722 46.1152 47.1491C46.0779 47.1261 46.0364 47.111 45.993 47.1045ZM40.9721 55.8432C41.3046 56.0953 41.6839 56.2787 42.0879 56.3826C42.4919 56.4866 42.9126 56.5091 43.3254 56.4488C43.723 56.3793 44.1063 56.2446 44.4599 56.0502C44.4774 56.0472 44.494 56.0405 44.5086 56.0306C44.5232 56.0206 44.5355 56.0076 44.5446 55.9924C44.5537 55.9772 44.5594 55.9602 44.5613 55.9427C44.5633 55.9251 44.5614 55.9073 44.5558 55.8905C44.5502 55.8737 44.541 55.8583 44.5289 55.8454C44.5168 55.8325 44.5021 55.8224 44.4857 55.8157C44.4693 55.809 44.4517 55.806 44.434 55.8067C44.4163 55.8075 44.399 55.8121 44.3833 55.8202C43.6756 55.9425 42.9523 55.9425 42.2446 55.8202C41.5669 55.6133 40.9454 55.2541 40.4279 54.77C40.3359 54.6397 40.1366 54.77 40.2363 54.908C40.4181 55.2648 40.6681 55.5825 40.9721 55.8432ZM64.1756 100.556C64.4132 100.556 63.3477 90.3226 62.0829 81.607C61.9526 80.6871 61.784 80.9861 61.7916 81.0627C62.4202 89.0042 63.6774 98.4787 64.0913 100.433C64.0938 100.459 64.1028 100.484 64.1176 100.506C64.1323 100.527 64.1523 100.544 64.1756 100.556Z" fill="black"/>
<path fill-rule="evenodd" clip-rule="evenodd" d="M149.117 95.6501C147.791 93.0898 143.813 88.4522 139.006 83.3087C141.735 81.8599 143.514 80.6794 143.82 79.9742C144.027 79.4989 143.345 79.0236 142.916 78.7324C140.769 77.2606 134.545 74.3324 126.887 70.8982C125.599 69.6181 124.35 68.3916 123.185 67.2418C126.895 61.2627 127.339 54.5324 125.553 47.7254C120.854 29.9491 107.693 25.7024 90.4223 32.5937C85.915 34.3874 76.9464 39.6536 74.3248 49.0439C73.4721 52.1033 73.3201 55.3155 73.8802 58.4418C68.8976 60.3505 62.5123 62.8034 54.4022 65.7317C52.4015 64.7275 51.5889 64.5359 51.6042 64.4285C51.6168 64.3672 51.6127 64.3036 51.5925 64.2443C51.5723 64.185 51.5367 64.1322 51.4893 64.0913C49.9562 63.1407 47.4112 62.8418 47.0203 63.1714C46.8216 63.3162 46.6502 63.4953 46.5144 63.7003L45.3875 60.0515C46.0851 59.7602 47.8022 58.7714 49.0133 55.7742C49.8842 53.3936 50.3103 50.8732 50.2705 48.3386C50.5969 47.8416 50.7546 47.2525 50.7201 46.6589C50.6856 46.0652 50.4607 45.4984 50.0788 45.0425C50.0788 44.8585 50.0252 44.6822 50.0022 44.4982C50.1638 43.9443 50.2918 43.3812 50.3854 42.8118C50.3854 41.915 50.6001 40.5122 50.1861 39.669C50.1315 39.2671 50.1315 38.8597 50.1861 38.4578C50.1861 37.1547 48.5457 36.5644 47.3729 35.4606C47.3729 34.5791 47.4419 33.6132 47.4495 32.8237C49.7809 32.1671 52.0631 31.3474 54.2795 30.3707C54.6781 30.1637 55.2913 29.8265 55.299 29.4049C55.299 27.6035 39.5617 23.4411 37.6224 23.8934C37.5534 23.6787 23.0119 28.9603 20.7583 31.2139C20.7088 31.2592 20.6692 31.3142 20.6422 31.3756C20.6151 31.437 20.6012 31.5033 20.6012 31.5704C20.6012 31.6374 20.6151 31.7038 20.6422 31.7651C20.6692 31.8265 20.7088 31.8816 20.7583 31.9268C20.5225 33.0673 20.5645 34.2478 20.8809 35.3686C20.644 35.3866 20.4173 35.4727 20.228 35.6164C20.0388 35.7601 19.8951 35.9554 19.8141 36.1788C19.7332 36.4022 19.7184 36.6443 19.7717 36.8758C19.825 37.1074 19.944 37.3187 20.1144 37.4843C19.3478 38.5498 19.4628 40.8035 20.03 41.961C20.0313 41.9803 20.0368 41.9992 20.0463 42.0162C20.0557 42.0332 20.0689 42.0478 20.0847 42.0591C20.1006 42.0703 20.1187 42.0779 20.1379 42.0812C20.157 42.0845 20.1767 42.0835 20.1954 42.0783C20.2141 42.073 20.2314 42.0636 20.246 42.0508C20.2606 42.038 20.2722 42.0221 20.2799 42.0042C20.2875 41.9863 20.2911 41.967 20.2903 41.9476C20.2895 41.9281 20.2844 41.9091 20.2753 41.892C20.1914 40.4836 20.2273 39.0706 20.3827 37.6683C20.5335 37.7443 20.6974 37.7911 20.8656 37.8062C20.5564 39.1406 20.6416 40.5361 21.1109 41.823C21.1179 41.8512 21.1342 41.8763 21.1571 41.8942C21.18 41.9122 21.2083 41.9219 21.2374 41.9219C21.2665 41.9219 21.2947 41.9122 21.3177 41.8942C21.3406 41.8763 21.3568 41.8512 21.3638 41.823C21.4865 39.6766 21.2489 39.761 21.2259 37.8446C22.2684 37.7296 21.1722 36.8864 22.3067 41.6773C22.3019 41.6965 22.3016 41.7166 22.3057 41.7359C22.3099 41.7553 22.3184 41.7734 22.3305 41.789C22.3427 41.8046 22.3583 41.8172 22.3761 41.8258C22.3939 41.8345 22.4134 41.839 22.4332 41.839C22.453 41.839 22.4725 41.8345 22.4903 41.8258C22.5081 41.8172 22.5236 41.8046 22.5358 41.789C22.548 41.7734 22.5565 41.7553 22.5606 41.7359C22.5648 41.7166 22.5644 41.6965 22.5597 41.6773C22.6784 40.2699 22.5061 38.853 22.0537 37.515C22.1665 37.4182 22.2601 37.3012 22.3297 37.17C22.8433 37.6299 22.7283 39.232 23.3645 41.685C23.3715 41.7132 23.3878 41.7383 23.4107 41.7563C23.4337 41.7742 23.4619 41.7839 23.491 41.7839C23.5201 41.7839 23.5484 41.7742 23.5713 41.7563C23.5942 41.7383 23.6105 41.7132 23.6175 41.685C23.6175 40.3895 23.6635 37.3157 22.4217 36.9017C22.4527 36.7254 22.4452 36.5446 22.3997 36.3714C22.3543 36.1983 22.2719 36.0371 22.1584 35.8988C22.0448 35.7605 21.9027 35.6483 21.7417 35.57C21.5808 35.4918 21.4048 35.4492 21.2259 35.4453C21.2963 34.4551 21.2963 33.4612 21.2259 32.4711C21.1722 32.0188 20.8196 32.7624 28.3548 34.1268C28.4084 34.9777 28.5004 36.2655 28.6154 37.423C27.8852 38.1912 27.2823 39.071 26.8293 40.0292C26.1241 41.685 26.8293 43.2181 27.3506 44.7895C27.4579 45.0961 27.4809 45.4411 27.5576 45.763C27.6802 46.3303 27.8719 46.3226 27.8182 46.8899C27.7645 47.4571 27.4043 48.239 27.6342 48.8982C28.0411 49.6989 28.557 50.4393 29.1673 51.0982C29.5905 51.574 29.858 52.1678 29.9339 52.8C29.9339 53.3825 31.1757 54.1721 31.5436 54.2028L32.0189 55.4446C32.4252 56.4871 35.1924 59.078 36.0203 59.8369C36.1046 60.5115 36.2809 62.1365 36.3192 63.271C36.0484 63.1886 35.7716 63.1271 35.4914 63.0871C31.9806 63.0334 15.3694 69.5261 9.55131 80.1351C0.651663 96.4167 8.19452 107.455 8.22518 107.532C3.19661 112.553 0.222395 124.373 12.1882 129.547C16.6327 131.396 21.2954 132.668 26.0628 133.334C25.9938 134.66 25.9018 140.179 27.2203 140.233C27.6726 140.233 28.0328 139.673 28.2705 139.236C29.0284 137.639 29.6465 135.98 30.1178 134.277C32.4175 134.123 32.3408 134.162 32.4175 134.047C43.8352 134.91 55.3178 134.076 66.4906 131.571C66.5826 131.571 66.5826 131.609 66.7359 130.934L68.1311 130.697C75.7966 142.778 72.9757 128.604 70.6223 125.208C70.3551 124.717 69.907 124.348 69.3729 124.181C71.1 123.226 72.7643 122.16 74.3554 120.992C78.8013 123.734 83.409 126.204 88.1534 128.389C91.6335 129.923 139.819 111.18 141.551 107.141C141.758 106.665 141.076 106.19 140.654 105.899C139.546 105.186 138.396 104.539 137.213 103.96L137.305 103.262C144.778 108.452 151.072 99.4292 149.117 95.6501ZM21.9618 36.2195C22.253 37.561 19.8307 37.4536 20.3367 36.3345C20.3899 36.2271 20.4676 36.1338 20.5634 36.0619C20.6593 35.99 20.7706 35.9416 20.8886 35.9205C21.3332 35.8132 21.7701 35.8056 21.9618 36.2195ZM126.021 92.7526C115.374 96.9992 100.135 102.396 91.7715 104.136C91.7526 104.136 91.7339 104.141 91.7169 104.149C91.6998 104.157 91.6848 104.169 91.6728 104.183C91.6608 104.198 91.6521 104.215 91.6473 104.233C91.6426 104.252 91.6419 104.271 91.6453 104.289C91.6486 104.308 91.656 104.326 91.6669 104.341C91.6778 104.357 91.692 104.37 91.7083 104.379C91.7247 104.388 91.743 104.394 91.7618 104.396C91.7807 104.398 91.7997 104.395 91.8175 104.389C100.878 102.71 115.703 97.6585 126.435 93.1818C127.14 93.91 127.838 94.6306 128.52 95.3205C117.941 99.8661 101.039 106.267 92.1011 108.275C92.0827 108.277 92.0648 108.282 92.0486 108.291C92.0325 108.3 92.0184 108.312 92.0074 108.327C91.9964 108.342 91.9886 108.359 91.9847 108.377C91.9807 108.395 91.9807 108.414 91.9845 108.432C91.9884 108.45 91.996 108.467 92.0069 108.482C92.0179 108.497 92.0319 108.509 92.048 108.519C92.0641 108.528 92.0819 108.533 92.1003 108.535C92.1187 108.536 92.1373 108.534 92.1547 108.528C101.905 106.55 118.217 100.571 128.903 95.7038L129.907 96.7156C117.305 102.173 92.4844 112.629 89.0272 113.104C88.2607 108.865 89.3875 103.622 90.9589 101.346C94.5387 101.415 110.307 95.8724 123.714 90.3226C124.49 91.1198 125.259 91.9298 126.021 92.7526ZM89.2878 117.642C86.8349 116.592 83.922 115.113 80.7025 113.357C80.8962 112.803 81.0448 112.234 81.1471 111.656C83.8453 113.066 86.5129 114.392 89.2418 115.58C91.7485 116.684 118.639 106.796 133.249 99.9275C133.709 100.349 134.146 100.748 134.568 101.116C120.463 107.884 91.7485 118.662 89.2878 117.604V117.642ZM135.089 101.545C135.672 102.035 136.208 102.472 136.691 102.84C136.598 104.035 136.371 105.215 136.017 106.359C133.564 107.585 90.9819 125.982 87.7241 125.982C87.0802 123.177 87.9924 120.578 89.6405 118.233C95.1596 118.325 123.691 107.095 135.089 101.537V101.545ZM47.5262 89.2647C47.698 89.1513 47.8596 89.023 48.0091 88.8815C48.6914 88.2069 48.3771 87.4404 47.6872 87.3484C48.3387 86.6355 47.9555 85.6236 46.591 85.9379C45.8316 86.1278 45.1442 86.5354 44.6133 87.1107C44.3757 86.4668 44.1534 85.754 43.6858 85.5163C43.3868 81.9902 43.1799 79.1003 43.2412 78.4564C43.8855 78.3898 44.5359 78.4156 45.1729 78.533C69.0279 79.6445 56.0886 82.91 72.2091 73.4662C72.6537 75.1449 73.0983 77.6515 73.5122 80.4188C72.8688 80.2281 72.1938 80.1682 71.5269 80.2425C70.1318 80.3651 70.0858 81.4459 70.9213 81.9059C70.7727 81.9682 70.6475 82.0759 70.5635 82.2135C70.4796 82.3511 70.4412 82.5117 70.4537 82.6724C70.515 83.232 71.1359 83.4926 71.6802 83.6459C71.1053 84.0752 70.8753 84.8571 71.6035 85.2634C72.4191 85.6517 73.3296 85.7954 74.2251 85.6773C74.6544 89.1344 74.9917 92.4306 75.1987 94.531C73.5889 96.2863 67.2189 102.718 64.9575 103.484C64.2676 103.722 45.9088 101.361 45.1806 101.261C45.1039 100.495 44.7206 96.6236 44.3144 92.2773C45.9088 92.032 48.1471 91.3651 48.3694 90.3763C48.4767 89.8627 48.0245 89.4334 47.5262 89.2647ZM73.9415 84.1672C74.3325 84.1672 74.6161 83.4006 73.083 83.4006C72.5617 83.2473 72.0711 83.209 71.5499 83.0097C70.3617 82.5421 71.6495 82.2432 72.876 82.5191C73.6426 82.7721 73.9109 82.0592 73.0446 81.8982C72.9297 81.8982 70.4307 81.4153 71.0516 81.032C71.2148 80.9487 71.3911 80.8942 71.5729 80.871C72.4625 80.7098 73.3804 80.8846 74.1485 81.3616C75.007 81.9902 74.7617 84.0905 74.4704 85.1944C74.3708 85.478 74.0872 85.547 73.7499 85.5393C73.08 85.4706 72.4281 85.281 71.8258 84.9797C71.5729 84.8264 71.5805 84.6808 71.6802 84.5045C72.1784 83.554 73.4049 84.1902 73.9645 84.1672H73.9415ZM75.7506 94.8989C75.8962 94.7456 75.8349 94.6459 75.6969 93.3658C80.3976 96.2448 85.2605 98.8503 90.2614 101.169C88.0307 104.626 87.5171 111.019 88.7283 114.63C85.5547 113.196 83.807 112.33 81.2084 110.858C81.8753 104.841 77.598 98.8236 73.4203 97.2445C74.4628 96.2557 75.2906 95.4048 75.7736 94.8989H75.7506ZM89.6021 115.021C89.3799 114.528 89.2078 114.015 89.0885 113.488C93.3582 112.943 118.064 102.511 130.375 97.1832C131.187 97.9498 131.977 98.7163 132.728 99.4829C118.501 106.052 92.699 115.665 89.6251 115.021H89.6021ZM74.7387 49.1665C77.2837 39.8989 86.076 34.6021 90.522 32.8313C107.478 26.0704 120.417 30.3401 124.971 47.8787C126.956 55.4906 125.737 61.531 123.085 66.1609C119.367 72.6919 112.867 76.4174 108.728 77.8125C97.1756 81.7219 86.4976 81.6452 79.844 71.3121C75.5206 64.6278 72.623 56.8397 74.7387 49.1665ZM73.9262 58.917C74.9053 63.4615 76.7421 67.7777 79.338 71.6341C83.0328 77.3756 87.8774 79.8285 92.722 80.5797C98.9004 81.5379 105.094 79.7212 108.935 78.4257C109.933 78.0838 110.908 77.6792 111.855 77.2146C115.052 80.8557 119.153 85.4243 123.223 89.763C122.135 90.2229 121.026 90.6829 119.896 91.1428C106.643 96.5087 92.354 101.422 90.6446 100.686C85.4943 98.3405 80.4876 95.6913 75.6509 92.7526C75.6509 92.7526 75.2983 89.4717 74.7311 85.271C75.145 83.9526 75.5513 81.8292 74.4858 80.963C74.3576 80.8571 74.2189 80.7646 74.0718 80.6871C73.716 78.139 73.217 75.6131 72.5771 73.1212C72.5687 73.0919 72.5541 73.0647 72.5344 73.0414C72.5146 73.0182 72.4902 72.9994 72.4626 72.9864C72.435 72.9733 72.405 72.9663 72.3745 72.9657C72.344 72.9652 72.3138 72.9712 72.2858 72.9832C72.1938 72.9832 71.7415 73.2975 71.0746 73.7498L69.1122 73.0752C69.0049 73.0369 69.1122 72.9142 65.5861 75.0529C62.7605 71.1966 59.0584 68.0674 54.7854 65.9233C62.6502 63.1561 68.9896 60.7798 73.9262 58.917ZM61.5311 77.6132C61.6077 77.6132 68.9283 73.2132 69.0356 73.2515L70.791 73.8724C57.545 82.3045 66.3373 79.131 45.4948 78.0118C46.752 77.0613 47.0279 76.862 47.0739 76.816C47.9018 76.2871 61.1631 77.5365 61.5311 77.6132ZM49.4732 45.0425C49.6277 46.1186 49.6893 47.206 49.6572 48.2927C49.024 48.9163 48.1771 49.2754 47.2886 49.2968C45.9701 49.3658 44.529 49.2048 44.0461 47.9707C42.6356 44.4982 47.7408 43.6934 49.4732 45.0425ZM48.2927 43.2334C48.653 43.7853 48.975 44.2146 49.1743 44.4752C47.4802 43.8007 43.0036 44.1839 43.4098 47.2731C42.8289 47.1584 42.2272 47.2143 41.6774 47.4341C41.2558 44.1609 35.3227 44.8892 34.5332 47.1582C34.3489 47.0331 34.1405 46.948 33.9213 46.9084C33.7021 46.8688 33.4771 46.8755 33.2607 46.9282C33.1304 45.5101 33.3067 43.4941 34.4412 42.9421C34.7631 42.7812 35.3687 43.655 35.8746 43.7853C37.0228 44.0805 38.2151 44.1636 39.3931 44.0306C40.7425 43.9136 42.0838 43.7165 43.4098 43.4404C45.2955 42.9881 45.1422 42.5665 46.4377 41.7846C46.5833 41.7003 47.0509 41.4397 47.2043 41.5087C47.9555 41.892 47.7255 42.3749 48.2927 43.2334ZM41.2558 47.9094C41.2098 49.4425 39.7917 50.2704 38.3199 50.347C37.0015 50.4237 35.5604 50.255 35.0774 49.0285C34.8701 48.6531 34.7771 48.2252 34.8098 47.7976C34.8425 47.3699 34.9995 46.9612 35.2614 46.6216C36.7025 44.9352 41.3938 44.8355 41.2558 47.9094ZM29.3206 39.5846C28.9373 37.7779 28.6812 35.9464 28.5541 34.1038C33.23 34.9394 38.3429 35.5449 38.9332 35.3303C39.6384 35.0773 43.1799 34.1115 46.7673 33.0306C46.729 35.4453 46.5833 37.0014 46.568 37.492C40.7524 37.4377 34.9545 38.1412 29.3206 39.5846ZM21.1569 31.5665C23.1576 29.6962 35.614 24.5909 37.6377 24.1387C39.4544 23.7631 52.7311 27.5958 54.6321 29.4049C53.329 30.7463 40.198 34.1958 38.7262 34.7171C37.9367 35.0007 22.851 32.908 21.1569 31.5665ZM33.8586 57.085C32.868 56.2121 32.1584 55.065 31.8196 53.7888C31.7583 53.0223 31.2217 51.1902 30.6774 50.9372C30.0047 50.4133 29.4265 49.7782 28.968 49.0592C28.2628 47.9937 28.3318 46.6829 29.5123 46.0773C31.4976 45.0655 32.0112 47.7637 32.4635 48.2313C32.7241 48.492 33.437 48.147 33.322 47.3651C33.6721 47.5099 34.047 47.5854 34.4259 47.5874C34.3772 48.1221 34.456 48.6606 34.6558 49.1589C35.2077 50.6153 36.7868 50.8836 38.3429 50.8069C40.1597 50.7073 41.7464 49.6035 41.7081 47.8097C42.0764 47.8941 42.459 47.8941 42.8272 47.8097C42.9499 48.216 43.8774 51.8648 43.5401 52.1177C43.3825 52.233 43.2097 52.3259 43.0266 52.3937C42.145 52.754 41.9151 52.6237 41.938 52.8153C41.9389 52.8291 41.9427 52.8426 41.9491 52.8549C41.9555 52.8672 41.9644 52.878 41.9752 52.8867C41.9861 52.8953 41.9986 52.9016 42.012 52.9052C42.0254 52.9087 42.0393 52.9094 42.053 52.9073C42.8196 52.9073 44.2147 52.7003 44.1764 51.9721C44.1164 50.504 43.7482 49.0649 43.0955 47.7484C43.2254 47.7064 43.3512 47.6525 43.4711 47.5874C43.9081 49.4348 45.3875 49.8488 47.3039 49.7491C48.1349 49.7168 48.9367 49.4335 49.6035 48.9366C49.5757 51.1838 49.1582 53.4091 48.3694 55.5136C46.9666 58.9784 44.8586 59.5149 44.8586 59.5149C44.8165 59.5246 44.7769 59.5429 44.7422 59.5685C44.7075 59.5942 44.6784 59.6268 44.6568 59.6642C44.6353 59.7016 44.6216 59.743 44.6168 59.7859C44.6119 59.8288 44.616 59.8723 44.6286 59.9136L45.9931 64.3442C44.7436 66.1839 45.1422 66.0843 44.8509 65.9616C43.8161 65.5324 39.1785 64.0683 36.8328 63.409C36.7777 62.1621 36.66 60.9187 36.4802 59.6836C36.4725 59.4306 35.9743 59.285 33.8586 57.085ZM30.7924 65.0954C32.5938 66.6285 40.7576 71.4885 43.1645 72.324C43.4018 72.4421 43.6726 72.4746 43.9311 72.416C44.184 72.301 44.0691 72.623 45.1116 66.7282C45.5025 67.1728 46.5144 68.2613 49.113 70.9519C49.1505 70.9937 49.1981 71.0252 49.2513 71.0434C49.3045 71.0616 49.3614 71.0659 49.4167 71.0559C49.472 71.046 49.5238 71.022 49.5673 70.9863C49.6107 70.9507 49.6443 70.9045 49.6649 70.8522C50.3345 69.0002 50.8975 67.1114 51.3513 65.1951C51.6101 65.2511 51.866 65.3201 52.1178 65.4021C51.9799 68.8515 52.0182 75.5742 48.8293 76.4327C48.2095 76.3958 47.5874 76.4266 46.9743 76.5247C41.984 76.2181 36.2426 72.0557 32.8391 68.6139C31.7506 67.5331 30.6621 66.5749 29.6503 65.4634L30.7924 65.0954ZM17.9144 93.1282C24.1311 87.5477 33.1917 86.3289 41.4091 88.0383C41.7847 88.1533 41.6774 88.1073 42.076 89.2878C42.503 88.9686 42.896 88.6064 43.2488 88.2069C43.5171 87.954 42.9269 87.2487 42.9806 86.3135C42.9806 86.1296 43.0266 85.9686 43.2029 85.9379C43.9694 85.8076 43.9694 87.7317 44.4063 87.8926C44.8433 88.0536 44.8586 87.4557 45.8398 86.8884C49.3199 84.8571 45.2189 88.2606 45.2189 88.3526C45.2167 88.3974 45.2239 88.4423 45.2401 88.4842C45.2563 88.5261 45.281 88.5642 45.3128 88.5959C45.3446 88.6277 45.3826 88.6525 45.4245 88.6686C45.4665 88.6848 45.5113 88.692 45.5562 88.6898C45.9088 88.6898 46.0008 88.2989 47.0893 88.0383C47.2656 87.9923 47.6642 87.9233 47.6948 88.0996C47.7715 88.4675 46.3764 89.1651 46.0468 89.3874C44.5597 89.901 45.0732 90.5219 45.4488 90.4222C46.0544 90.2689 46.5757 89.5714 47.3039 89.8013C47.4955 89.8627 47.8175 90.062 47.7792 90.2613C47.7408 90.4606 47.4419 90.6829 47.2732 90.8132C45.9854 91.7714 43.1262 92.078 43.0495 92.1163C43.1109 92.8215 43.6705 93.7951 43.5325 94.094C41.3505 98.5949 38.3628 102.658 34.7171 106.083C34.6328 106.121 31.6509 108.996 31.053 108.896C30.4551 108.796 31.2677 108.681 33.0614 107.125C37.1632 103.4 40.5077 98.9179 42.9116 93.9254C42.6816 93.1588 41.3785 89.4411 41.1485 88.6515C36.783 87.7382 32.2757 87.7382 27.9102 88.6515C19.5778 90.4836 16.5882 95.0905 16.182 95.1595C15.676 95.1749 17.5234 93.5191 17.9527 93.1282H17.9144ZM27.2739 139.566C26.7834 138.907 26.5611 136.086 26.6607 133.433C27.5652 133.564 28.4621 133.671 29.3666 133.771C29.5046 134.1 29.4663 134.07 29.5353 134.146C29.244 135.173 28.0865 138.746 27.3123 139.566H27.2739ZM66.368 131.264C59.9332 132.493 53.4188 133.262 46.8746 133.564C35.7597 134.108 22.6976 133.372 12.4335 128.918C6.34713 126.289 4.32344 121.904 4.47675 117.658C4.65399 114.117 6.08291 110.754 8.5088 108.168C8.93285 109.25 9.48075 110.278 10.1416 111.234C11.0078 112.246 25.5415 112.92 40.1826 112.951C41.1689 111.984 42.2106 111.076 43.3025 110.23C48.4921 112.177 50.968 113.296 68.0084 123.92L66.368 131.264ZM69.3729 124.656C71.0976 125.262 73.1136 133.518 72.3854 134.844C71.8182 134.691 70.1701 132.72 68.5527 130.245C68.5215 130.195 68.4764 130.157 68.4231 130.134C68.3699 130.11 68.3109 130.104 68.2537 130.114L66.8893 130.398C67.0962 129.463 67.4412 127.815 68.0697 124.886C68.2497 124.738 68.4651 124.639 68.6948 124.598C68.9245 124.558 69.1608 124.578 69.3805 124.656H69.3729ZM68.223 124.097C68.223 123.966 68.292 123.867 68.223 123.805C68.2997 123.805 52.5318 113.771 48.3694 111.855C47.0049 111.226 45.5485 110.613 44.0231 110.008C47.3332 107.428 50.8364 105.106 54.5018 103.063C59.5074 103.676 64.6739 104.243 65.1568 104.075C66.8279 103.523 70.3617 100.288 72.991 97.7121C75.8196 98.632 79.3764 102.311 80.4189 106.98C81.2927 110.874 80.3422 115.343 75.7122 119.153C73.3823 121.04 70.8741 122.696 68.223 124.097ZM140.877 106.957C138.531 110.843 91.4955 129.187 88.3373 127.853C83.6635 125.728 79.1201 123.327 74.7311 120.663C77.2147 118.8 79.3304 116.83 80.4802 113.833C81.7297 114.523 88.322 118.056 89.2648 118.202C87.5478 120.632 86.6509 123.3 87.3255 126.182C87.8007 128.167 133.916 108.045 136.047 107.018C136.262 106.918 136.454 106.842 136.523 106.704C136.79 106.031 136.973 105.328 137.067 104.611C139.198 105.707 140.562 106.55 140.907 106.957H140.877ZM138.516 82.8257C135.227 79.3226 131.578 75.6048 128.152 72.186C136.231 75.8348 142.379 78.786 143.153 79.7902C142.64 80.7024 139.42 82.4425 138.546 82.8257H138.516Z" fill="black" stroke="black" stroke-width="0.4"/>
</svg>
